<svg xmlns="http://www.w3.org/2000/svg" width="100" height="100" version="1.0"><path d="M74.219 27.155l-1.042 2.227S68.236 39.876 62.22 46.487c-1.934 2.139-2.916 2.783-3.984 2.783-.859 0-1.256-.716-1.256-2.643v-19.96H38.274v1.529c0 2.227 3.418 2.731 3.418 8.764v12.447c0 2.507-.137 3.477-1.321 3.477-3.145 0-10.612-10.777-14.805-23.014l-1.042-3.203h-12.22c-1.328 0-2.305.904-2.305 2.227 0 2.435 2.864 13.697 14.102 28.792 7.539 10.153 17.454 15.647 26.387 15.647 5.449 0 6.771-.904 6.771-3.196v-7.79c0-1.949.769-2.783 1.889-2.783 1.256 0 3.47.4 8.652 5.495.006 0 8.307 8.274 8.307 8.274h11.869c1.048 0 2.024-.484 2.024-2.223 0-2.299-3.001-6.4-7.61-11.267-1.882-2.503-4.955-5.218-5.932-6.472-1.393-1.458-.977-2.291 0-3.821 0 0 10.541-14.817 11.589-19.681.352-1.738-.417-2.715-2.233-2.715l-11.595.001z"/></svg>